<?xml version="1.0" encoding="utf-8"?>
<!-- Generator: Adobe Illustrator 24.3.0, SVG Export Plug-In . SVG Version: 6.00 Build 0)  -->
<svg version="1.1" id="Layer_1" xmlns="http://www.w3.org/2000/svg" xmlns:xlink="http://www.w3.org/1999/xlink" x="0px" y="0px"
	 viewBox="0 0 1000 1000" style="enable-background:new 0 0 1000 1000;" xml:space="preserve">
<style type="text/css">
	.st0{fill-rule:evenodd;clip-rule:evenodd;fill:#FFFFFF;}
	.st1{fill:#FFFFFF;}
</style>
<path class="st0" d="M536.9,313.2c-71.2,0.1-137.2,37.2-174.2,98c94.4-96.1,248.9-97.4,345-3l3.9,3.9
	C674.6,350.9,608.4,313.4,536.9,313.2z"/>
<path class="st0" d="M362.6,624.7c58.9,96.4,184.8,126.8,281.2,67.8c27.7-16.9,50.9-40.2,67.8-67.8c-94.1,96.4-248.6,98.2-345,4.1
	L362.6,624.7z"/>
<path class="st1" d="M261.1,506.8c2.4-0.2,4.8,0.8,6.3,2.6c1.7,1.7,2.6,4,2.6,6.3V557c0.2,2.5-0.8,4.9-2.6,6.5
	c-27.9,23.5-69.5,19.9-93-8c-2.8-3.3-5.2-6.8-7.3-10.6c-6.1-10.9-9.3-23.2-9.1-35.7c-0.2-12.2,2.8-24.2,8.7-34.8
	c5.7-10.3,13.9-19,24-25.1c10.2-6.3,22-9.5,34-9.3c7.7-0.2,15.4,0.9,22.7,3.3c7.1,2.8,13.7,6.7,19.5,11.5c1.3,0.8,2.2,2,2.8,3.3
	c0.2,1.2,0.2,2.5,0,3.7c0,2.2-0.9,4.3-2.6,5.8c-1.6,1.5-3.7,2.3-6,2.2c-2.2,0-4.3-0.8-6-2.2c-4.1-3.6-8.7-6.5-13.8-8.6
	c-5.6-2-11.5-3-17.5-2.8c-8.9,0.2-17.5,2.8-24.9,7.6c-7.7,4.5-14.1,10.9-18.6,18.6c-8.7,16.6-8.7,36.4,0,53c4.6,7.6,11,14,18.6,18.6
	c7.5,4.6,16.1,7.1,24.9,7.1c10-0.1,19.6-3.2,27.9-8.7v-29.9h-23.2c-2.4-0.1-4.7-1.1-6.5-2.8c-3.1-3.1-3.1-8.2,0-11.3c0,0,0,0,0,0
	l0,0c1.8-1.5,4.1-2.3,6.5-2.2L261.1,506.8z"/>
<path class="st1" d="M340.3,578.6c-10.8,0-21.4-2.6-30.9-7.6c-8.3-4.3-14.8-11.3-18.6-19.9c-0.5-1.1-0.8-2.3-0.9-3.5
	c0-1.7,0.8-3.3,2-4.5c1.4-1.5,3.2-2.5,5.2-2.8h1.7c1.9,0,3.7,0.6,5.2,1.7c1.7,1.1,3,2.6,3.7,4.5c2.7,5,7.1,8.9,12.3,11.2
	c6.3,3.2,13.4,4.8,20.5,4.6c7.7,0.5,15.4-1.3,22.1-5.2c5.7-3.5,9-9.9,8.7-16.6c0.2-6.5-2.6-12.7-7.6-16.7
	c-6.6-5.3-14.6-8.3-23.1-8.7c-12.4-0.6-24.2-5.1-33.8-12.8c-7.9-6.5-12.5-16.2-12.5-26.4c0-6.7,2.2-13.3,6.3-18.6
	c4.6-5.4,10.6-9.5,17.3-11.7c7.9-2.9,16.3-4.5,24.7-4.5c8.8-0.2,17.4,1.9,25.1,6.1c7.1,4.3,13,10.2,17.3,17.3c1.2,1.9,1.9,4.1,2,6.3
	c0,2.5-1.3,4.8-3.3,6.1c-1.4,0.9-3,1.4-4.6,1.3c-1.7-0.1-3.3-0.5-4.8-1.3c-1.4-0.8-2.6-2.1-3.3-3.5c-2.8-5-6.8-9.1-11.7-11.9
	c-5.7-3.1-12.1-4.5-18.6-4.1c-7.5-0.3-14.9,1.5-21.4,5.2c-5.2,3-8.3,8.7-8,14.7c-0.1,5.9,2.6,11.5,7.3,15.1
	c7.8,4.9,16.7,7.6,25.8,7.8c11.8,0.6,23.1,5,32.2,12.6c7.5,6.5,11.9,15.8,12.1,25.7c0.2,8-2.4,15.9-7.4,22.1
	c-4.8,6.2-11.2,10.9-18.6,13.6c-7.6,3-15.7,4.5-23.8,4.5H340.3z"/>
<path class="st1" d="M445,576.7c-8,0-15.9-1.8-23.1-5.4c-13.2-7.3-21.6-21-22.1-36.1c0-2.4,0.8-4.7,2.2-6.5c2.9-2.9,7.6-3,10.5-0.1
	c0,0,0.1,0.1,0.1,0.1l0,0c1.6,1.8,2.5,4.1,2.4,6.5c-0.2,4.6,1.1,9.1,3.5,13c2.4,4,5.8,7.2,9.9,9.5c4.3,2.4,9.1,3.6,13.9,3.5
	c6.8,0.4,13.5-1.9,18.6-6.3c4.8-4.6,7.3-11.1,6.9-17.7c0.1-4.5-1-8.9-3.2-12.8c-1.9-3.9-4.8-7.1-8.6-9.3c-3.5-2.3-7.7-3.5-11.9-3.3
	c-2.4,0-4.8-0.9-6.5-2.6c-1.5-1.8-2.4-4.1-2.4-6.5c0-2.3,0.8-4.5,2.4-6.1c1.7-1.7,4.1-2.6,6.5-2.6c6.8,0,13.2-3.6,16.7-9.5
	c2-2.8,3-6.1,3-9.5c0.2-4.9-1.9-9.6-5.6-12.8c-3.8-3.5-8.9-5.4-14.1-5.2c-4.2-0.1-8.3,0.8-12.1,2.6c-3.4,1.5-6.3,3.9-8.6,6.9
	c-2.1,2.8-3.2,6.2-3.2,9.7c0,2.3-0.7,4.6-2,6.5c-1.5,1.7-3.6,2.6-5.8,2.6c-2.2,0.2-4.3-0.7-5.8-2.4c-1.4-1.8-2.2-4-2.2-6.3
	c-0.2-6.6,1.7-13.1,5.2-18.6c3.5-5.4,8.4-9.8,14.1-12.6c6.2-3.2,13.1-4.8,20.1-4.6c6.5,0,12.8,1.5,18.6,4.5c5.3,2.7,9.8,6.8,13,11.9
	c3.1,5.2,4.8,11.1,4.8,17.1c0,6-2.1,11.8-6,16.4c-4.1,4.5-9.1,8.1-14.7,10.6c17.1,3.8,28.7,19.7,27.2,37.2c-0.2,6.6-2.2,13-5.8,18.6
	c-3.8,5.9-9,10.8-15.2,14.1C459.6,574.6,452.4,576.5,445,576.7z"/>
<path class="st1" d="M546.7,494.7c7.4-0.2,14.7,1.7,21,5.4c6,3.4,11,8.3,14.3,14.3c7.1,13.2,7.1,29.2,0,42.4
	c-3.4,6.2-8.4,11.3-14.5,14.7c-6.4,3.6-13.5,5.4-20.8,5.2c-7.4,0.1-14.7-1.7-21.2-5.2c-6-3.4-10.9-8.5-14.1-14.5
	c-7.4-14.1-6.9-31.1,1.3-44.8l39.2-65.1c1.5-3,4.6-4.9,8-4.8c2.8-0.3,5.6,0.9,7.3,3.2c3,2.8,3.5,7.3,1.3,10.8l-23.6,39.2
	L546.7,494.7z M546.7,561.3c6.6,0.2,12.9-2.4,17.5-7.1c9.5-10.6,9.5-26.6,0-37.2c-9.6-9.6-25.1-9.6-34.7-0.1c0,0,0,0-0.1,0.1l0,0
	c-4.7,5-7.1,11.7-6.7,18.6c-0.4,6.8,2,13.5,6.5,18.6C533.9,558.9,540.2,561.4,546.7,561.3z"/>
<path class="st1" d="M645.1,576.7c-13,0.1-24.9-7.1-30.9-18.6c-7.5-15.2-10.9-32.1-9.9-49.1c-0.9-17.3,2.8-34.4,10.6-49.8
	c6.2-11.2,18.1-18,30.9-17.7c8.3-0.2,16.3,2.8,22.5,8.2c6.7,6.4,11.6,14.4,14.1,23.2c6.5,23.7,6.5,48.7,0,72.3
	c-2.6,8.9-7.5,17-14.1,23.4C661.9,574.3,653.6,577.1,645.1,576.7z M645.1,558.1c8.2-0.2,15.3-5.7,17.5-13.6
	c4.5-11.5,6.5-23.8,6-36.1c0.4-12.2-1.6-24.4-6-35.9c-2.1-8-9.2-13.7-17.5-13.9c-8.7-0.3-16.4,5.5-18.6,13.9
	c-4.3,11.5-6.3,23.7-6,35.9c-0.4,12.3,1.7,24.6,6.1,36.1c2.1,8,9.2,13.5,17.5,13.8L645.1,558.1z"/>
<path class="st0" d="M783.6,518.1c-0.2-85.8-44.8-165.3-117.9-210.1c57.6,54.5,89.7,130.8,88.3,210.1
	c1.5,79.6-30.8,156.1-88.9,210.5C738.6,683.8,783.4,604.1,783.6,518.1z"/>
<circle class="st1" cx="507.6" cy="876.5" r="50"/>
<circle class="st1" cx="840.5" cy="702.8" r="50"/>
<circle class="st1" cx="826.2" cy="327.9" r="50"/>
<circle class="st1" cx="501.9" cy="123.5" r="50"/>
<path class="st1" d="M209,317.9c-0.5,12.9-5.7,25.2-14.7,34.6c-9.4,9.4-22.1,14.6-35.3,14.7c-26.7-1.2-48.2-22.6-49.5-49.3
	c0-27.6,22.4-50,50-50s50,22.4,50,50H209z"/>
<circle class="st1" cx="168.8" cy="710.8" r="50"/>
</svg>
