<?xml version="1.0" encoding="utf-8"?>
<!-- Generator: Adobe Illustrator 24.3.0, SVG Export Plug-In . SVG Version: 6.00 Build 0)  -->
<svg version="1.1" id="Layer_1" xmlns="http://www.w3.org/2000/svg" xmlns:xlink="http://www.w3.org/1999/xlink" x="0px" y="0px"
	 viewBox="0 0 341 123.1" style="enable-background:new 0 0 341 123.1;" xml:space="preserve">
<style type="text/css">
	.st0{fill-rule:evenodd;clip-rule:evenodd;fill:#FFFFFF;}
	.st1{fill:#FFFFFF;}
</style>
<path class="st0" d="M268.8,1.5c-20.8,0.1-40.1,10.9-51,28.7c12-13.5,30.9-21.4,51-21.5s39.2,8,51.1,21.5
	C309,12.5,289.6,1.6,268.8,1.5z"/>
<path class="st0" d="M217.6,92.7c17.2,28.2,54,37.2,82.2,20c8.2-5,15-11.8,20-19.9c-12,13.5-30.9,21.4-51,21.4
	S229.6,106.2,217.6,92.7z"/>
<path class="st1" d="M30.2,58.2c0.7,0,1.4,0.3,1.8,0.8c0.5,0.5,0.8,1.2,0.8,1.9v12.1c0.1,0.7-0.2,1.4-0.8,1.9
	c-3.5,2.9-7.9,4.5-12.4,4.4c-3.5,0-6.9-0.9-9.9-2.7c-2.9-1.8-5.4-4.3-7-7.3C0.9,66,0,62.5,0,58.9c0-3.6,0.9-7.1,2.6-10.2
	c1.6-3,4.1-5.6,7-7.3c3-1.8,6.5-2.8,10-2.7c2.3-0.1,4.5,0.3,6.6,1c2.1,0.8,4,1.9,5.7,3.3c0.4,0.3,0.6,0.6,0.8,1
	c0.1,0.4,0.2,0.7,0.2,1.1c0,0.6-0.3,1.3-0.8,1.7c-0.5,0.4-1.1,0.7-1.7,0.7c-0.6,0-1.2-0.2-1.7-0.7c-1.2-1.1-2.6-1.9-4-2.5
	c-1.6-0.6-3.4-0.9-5.1-0.8c-2.6,0-5.1,0.7-7.3,2.1c-2.2,1.4-4,3.3-5.3,5.6C4.4,56,4.4,61.8,7,66.7c1.2,2.3,3.1,4.2,5.3,5.6
	c2.2,1.4,4.7,2.1,7.3,2.1c2.9,0,5.7-0.9,8.1-2.5v-9h-7c-0.7,0-1.4-0.2-1.9-0.7c-0.9-0.9-0.9-2.4-0.1-3.3c0,0,0,0,0.1-0.1
	c0.5-0.5,1.2-0.7,1.9-0.7L30.2,58.2z"/>
<path class="st1" d="M51.2,78.9c-2.5,0-5-0.6-7.2-1.8c-2.1-1.2-3.8-2.9-5-5c-2.4-4.6-2.4-10,0-14.5c1.2-2.1,2.9-3.8,5-5
	c2.2-1.2,4.7-1.9,7.2-1.8c2.5,0,5,0.6,7.2,1.9c2.1,1.2,3.8,2.9,5,5c1.2,2.2,1.9,4.7,1.8,7.3c0,2.5-0.6,5-1.8,7.2
	c-1.2,2.1-2.9,3.8-5,5C56.2,78.4,53.8,79,51.2,78.9L51.2,78.9z M51.2,74.3c1.6,0,3.2-0.4,4.6-1.2c1.4-0.8,2.5-1.9,3.2-3.3
	c1.5-3.1,1.5-6.7,0-9.8c-0.7-1.4-1.8-2.6-3.2-3.4c-1.4-0.8-3-1.2-4.6-1.2c-1.6,0-3.2,0.4-4.7,1.2c-1.4,0.8-2.5,2-3.2,3.4
	c-1.5,3.1-1.5,6.7,0,9.8c0.7,1.4,1.8,2.5,3.2,3.3C48,73.9,49.6,74.3,51.2,74.3z"/>
<path class="st1" d="M86,79.2c-3.1,0-6.2-0.7-9-2.2c-2.5-1.2-4.4-3.3-5.5-5.8c-0.1-0.3-0.2-0.7-0.2-1c0-0.5,0.2-1,0.6-1.3
	c0.4-0.4,0.9-0.7,1.5-0.8c0.2,0,0.3,0,0.5,0c0.5,0,1.1,0.2,1.5,0.5c0.5,0.3,0.9,0.7,1.1,1.3c0.8,1.5,2,2.6,3.6,3.3
	c1.9,0.9,3.9,1.4,6,1.4c2.3,0.1,4.5-0.5,6.4-1.7c1.6-1,2.6-2.9,2.6-4.8c0-1.9-0.8-3.7-2.2-4.9c-1.4-1.3-3.7-2.2-6.8-2.5
	c-4.2-0.4-7.5-1.6-9.9-3.6c-2.3-1.9-3.6-4.7-3.6-7.7c0-2,0.6-4,1.8-5.6c1.3-1.6,3.1-2.9,5.1-3.6c2.3-0.9,4.8-1.3,7.3-1.3
	c2.6-0.1,5.1,0.6,7.3,1.8c2.1,1.3,3.8,3,5.1,5.1c0.4,0.5,0.6,1.2,0.6,1.8c0,0.7-0.4,1.4-1,1.8c-0.4,0.2-0.9,0.4-1.3,0.4
	c-0.5,0-1-0.1-1.4-0.4c-0.4-0.3-0.8-0.6-1-1.1c-0.8-1.4-2-2.6-3.4-3.4c-1.6-0.9-3.4-1.3-5.2-1.2c-2.2-0.1-4.3,0.4-6.2,1.5
	c-1.5,0.9-2.5,2.5-2.4,4.3c0,1.7,0.8,3.3,2.1,4.4c1.4,1.2,4,2,7.6,2.3c4,0.4,7.2,1.6,9.4,3.7c2.2,2.1,3.4,5,3.3,8
	c0.1,2.3-0.7,4.5-2,6.3c-1.3,1.8-3.1,3.1-5.2,4C90.8,78.8,88.4,79.2,86,79.2L86,79.2z"/>
<path class="st1" d="M121.5,50.7c2.2,0,4.3,0.5,6.3,1.5c1.9,1,3.4,2.6,4.4,4.5c1.1,2.2,1.6,4.6,1.6,7v12.4c0,0.7-0.3,1.4-0.8,1.9
	c-0.5,0.5-1.1,0.7-1.8,0.7c-1.3,0.1-2.5-0.9-2.6-2.3c0-0.1,0-0.2,0-0.3V63.7c0-2.7-0.7-4.8-2.2-6.2c-1.6-1.5-3.7-2.2-5.8-2.1
	c-1.3,0-2.7,0.3-3.9,0.9c-1.1,0.5-2,1.3-2.7,2.3c-0.7,1-1,2.1-1,3.3v14.3c0,0.7-0.2,1.4-0.7,1.9c-0.5,0.5-1.2,0.7-1.9,0.7
	c-1.3,0.1-2.5-0.9-2.6-2.3c0-0.1,0-0.2,0-0.3V41.7c0-0.7,0.2-1.4,0.7-1.9c0.5-0.5,1.2-0.7,1.9-0.7c1.3-0.1,2.5,0.9,2.6,2.3
	c0,0.1,0,0.2,0,0.3v12.4c1.1-1.1,2.4-1.9,3.9-2.5C118.2,51,119.8,50.7,121.5,50.7L121.5,50.7z"/>
<path class="st1" d="M154.9,50.8c2.5,0,4.9,0.6,7,1.9c2.1,1.2,3.8,3,5,5.1c1.3,2.2,1.9,4.6,1.9,7.1v11.3c0,0.7-0.3,1.4-0.8,1.9
	c-0.5,0.5-1.1,0.7-1.8,0.7c-1.3,0.1-2.5-0.9-2.6-2.3c0-0.1,0-0.2,0-0.3v-1.9c-2.4,2.9-6,4.6-9.8,4.6c-2.3,0-4.6-0.6-6.6-1.8
	c-2-1.2-3.6-3-4.7-5c-1.1-2.2-1.7-4.7-1.7-7.2c0-2.5,0.6-5,1.8-7.1c1.2-2.1,2.9-3.9,5-5.1C149.8,51.4,152.3,50.8,154.9,50.8
	L154.9,50.8z M154.9,74.3c1.6,0,3.2-0.4,4.6-1.2c1.4-0.8,2.5-2,3.2-3.4c1.6-3.1,1.6-6.7,0-9.7c-1.5-2.9-4.5-4.7-7.8-4.7
	c-1.6,0-3.2,0.5-4.6,1.3c-1.4,0.8-2.5,2-3.3,3.3c-1.6,3.1-1.6,6.7,0,9.7c0.8,1.4,1.9,2.6,3.2,3.4C151.6,73.9,153.3,74.3,154.9,74.3z
	"/>
<path class="st1" d="M190.1,50.7c1.4-0.1,2.9,0.2,4.2,0.8c0.9,0.3,1.4,1.1,1.5,2c0,0.2,0,0.3,0,0.5c-0.2,1-1,1.6-2,1.6
	c-0.3,0-0.5,0-0.8-0.1c-1.1-0.2-2.2-0.3-3.3-0.4c-2.1-0.1-4.2,0.5-5.9,1.7c-1.4,1-2.3,2.7-2.2,4.5v14.8c0,0.7-0.2,1.4-0.7,1.9
	c-0.5,0.5-1.2,0.7-1.9,0.7c-0.7,0-1.4-0.2-1.9-0.6c-0.5-0.5-0.7-1.2-0.7-1.9V53.5c-0.1-1.3,0.8-2.4,2-2.5c0.2,0,0.3,0,0.5,0
	c1.2-0.2,2.4,0.7,2.5,1.9c0,0.2,0,0.4,0,0.6v1c1-1.2,2.3-2.2,3.7-2.9C186.8,51,188.5,50.6,190.1,50.7L190.1,50.7z"/>
<path class="st1" d="M224,64.4c0,0.6-0.2,1.2-0.6,1.6c-0.5,0.4-1.1,0.6-1.7,0.6h-19.2c0.3,2.2,1.4,4.3,3.2,5.7
	c1.9,1.5,4.2,2.2,6.5,2.2c1.1,0,2.1-0.2,3.1-0.6c1-0.3,1.9-0.7,2.7-1.3c0.5-0.4,1.1-0.6,1.7-0.6c0.6,0,1.1,0.2,1.5,0.5
	c0.6,0.4,0.9,1,0.9,1.7c0,0.6-0.3,1.2-0.8,1.5c-1.3,1-2.7,1.7-4.3,2.2c-1.6,0.5-3.2,0.8-4.9,0.9c-2.6,0-5.1-0.6-7.4-1.8
	c-2.1-1.2-3.9-2.9-5.2-5c-1.2-2.2-1.9-4.7-1.8-7.2c0-2.5,0.5-5,1.7-7.3c1.1-2.1,2.8-3.8,4.9-5c2.2-1.2,4.6-1.9,7.1-1.8
	c2.4-0.1,4.7,0.5,6.7,1.7c1.9,1.1,3.4,2.8,4.4,4.8C223.5,59.6,224.1,62,224,64.4z M211.4,55.1c-2.2-0.1-4.3,0.6-6,2
	c-1.6,1.4-2.6,3.3-2.9,5.4h16.9c-0.2-2-1.1-4-2.5-5.4C215.4,55.8,213.4,55,211.4,55.1L211.4,55.1z"/>
<path class="st1" d="M241.9,78.7c-2.3,0-4.6-0.5-6.7-1.6c-1.9-1-3.5-2.5-4.6-4.4c-1.1-1.9-1.7-4-1.7-6.2c0-0.7,0.2-1.4,0.7-1.9
	c0.8-0.9,2.2-1,3.1-0.2c0.1,0.1,0.2,0.1,0.2,0.2c0.4,0.5,0.7,1.2,0.7,1.9c0,1.4,0.4,2.7,1.1,3.8c0.7,1.2,1.7,2.1,2.9,2.8
	c1.3,0.7,2.7,1,4.1,1c2,0.1,3.9-0.5,5.4-1.8c1.4-1.4,2.1-3.2,2-5.2c0-1.3-0.3-2.6-0.9-3.8c-0.6-1.1-1.4-2.1-2.5-2.7
	c-1-0.7-2.3-1-3.5-1c-0.7,0-1.4-0.3-1.9-0.8c-0.5-0.5-0.7-1.2-0.7-1.9c0-0.7,0.2-1.3,0.7-1.8c0.5-0.5,1.2-0.8,1.9-0.8
	c1,0,1.9-0.2,2.7-0.7c0.9-0.5,1.7-1.2,2.2-2.1c0.6-0.8,0.9-1.8,0.9-2.8c0-1.4-0.6-2.8-1.6-3.8c-1.1-1-2.6-1.6-4.1-1.5
	c-1.2,0-2.4,0.2-3.5,0.8c-1,0.5-1.9,1.1-2.5,2c-0.6,0.8-0.9,1.8-0.9,2.8c0,0.7-0.2,1.4-0.7,2c-0.4,0.5-1,0.8-1.7,0.8
	c-0.6,0-1.2-0.2-1.7-0.7c-0.4-0.5-0.7-1.2-0.7-1.9c0-1.8,0.5-3.7,1.5-5.2c1-1.6,2.5-2.9,4.1-3.7c1.8-0.9,3.8-1.4,5.9-1.4
	c1.9,0,3.7,0.4,5.4,1.3c1.6,0.8,2.9,2,3.8,3.5c0.9,1.5,1.4,3.2,1.4,5c0,1.7-0.6,3.4-1.8,4.8c-1.2,1.3-2.7,2.4-4.3,3.1
	c2.3,0.7,4.3,2.1,5.7,4.1c1.3,1.9,1.9,4.1,1.9,6.4c0,2.1-0.6,4.1-1.7,5.9c-1.1,1.8-2.7,3.2-4.5,4.2C246.1,78.2,244,78.7,241.9,78.7z
	"/>
<path class="st1" d="M271.7,54.7c2.1,0,4.3,0.5,6.1,1.6c1.8,1,3.2,2.5,4.2,4.2c2,3.9,2,8.5,0,12.4c-1,1.8-2.5,3.3-4.2,4.3
	c-1.9,1-4,1.5-6.1,1.5c-2.2,0-4.3-0.5-6.2-1.5c-1.8-1-3.2-2.5-4.2-4.3c-1-1.9-1.6-4-1.5-6.2c0-2.5,0.6-4.9,1.9-6.9l11.5-19.1
	c0.5-0.9,1.4-1.4,2.3-1.4c0.7,0,1.4,0.3,1.9,0.8c0.9,0.8,1,2.2,0.4,3.2l-6.9,11.5H271.7z M271.6,74.1c1.9,0.1,3.8-0.7,5.1-2.1
	c2.6-3.1,2.6-7.6,0-10.7c-1.3-1.4-3.2-2.2-5.1-2.1c-1.9-0.1-3.8,0.7-5.1,2.1c-1.4,1.5-2.1,3.4-2,5.4c-0.1,2,0.6,3.9,1.9,5.4
	C267.8,73.5,269.7,74.2,271.6,74.1L271.6,74.1z"/>
<path class="st1" d="M300.4,78.7c-3.7,0.1-7.2-1.9-9-5.2c-2.1-3.5-3.1-8.3-3.1-14.6c0-6.2,1-11.1,3.1-14.6c1.8-3.3,5.3-5.3,9-5.2
	c2.4-0.1,4.8,0.8,6.6,2.4c2,1.9,3.4,4.2,4.1,6.8c1,3.4,1.5,7,1.4,10.6c0.1,3.6-0.4,7.1-1.4,10.6c-0.7,2.6-2.2,5-4.1,6.8
	C305.2,77.9,302.8,78.7,300.4,78.7z M300.4,73.4c2.3,0,4-1.3,5.1-4c1.3-3.4,1.9-6.9,1.8-10.5c0.1-3.6-0.5-7.2-1.8-10.5
	c-1.2-2.7-2.9-4.1-5.1-4.1c-2.2,0-3.9,1.3-5.2,4.1c-1.3,3.4-1.9,6.9-1.7,10.5c-0.1,3.6,0.5,7.2,1.8,10.6
	C296.5,72.1,298.2,73.4,300.4,73.4L300.4,73.4z"/>
<path class="st0" d="M341,61.5c0-25.1-13.1-48.4-34.5-61.5c16.2,14.4,25.8,37.2,25.8,61.5s-9.7,47.2-26,61.6
	C327.8,110,341,86.7,341,61.5z"/>
</svg>
