<svg xmlns="http://www.w3.org/2000/svg" viewBox="0 0 341 123.11"><defs><style>.a{fill:#f2a739;}.a,.b,.d{fill-rule:evenodd;}.b{fill:#df364b;}.c{fill:#3c475b;}.d{fill:#3eadab;}</style></defs><title>gs360lgo-original</title><path class="a" d="M273.76,9.89a60,60,0,0,0-51,28.65c12-13.47,30.9-21.43,51-21.45s39.18,8,51.13,21.54A60,60,0,0,0,273.76,9.89Z" transform="translate(-5 -8.35)"/><path class="b" d="M222.62,101.07a59.83,59.83,0,0,0,102.18.1c-12,13.47-30.9,21.43-51,21.45S234.57,114.6,222.62,101.07Z" transform="translate(-5 -8.35)"/><path class="c" d="M35.17,66.52a2.38,2.38,0,0,1,1.83.76,2.46,2.46,0,0,1,.76,1.87v12.1A2.29,2.29,0,0,1,37,83.13a18.9,18.9,0,0,1-12.41,4.4,19,19,0,0,1-9.92-2.68,19.4,19.4,0,0,1-7-7.34A20.87,20.87,0,0,1,5,67.23,20.51,20.51,0,0,1,7.58,57.05a19.4,19.4,0,0,1,7-7.34A18.77,18.77,0,0,1,24.54,47a19.51,19.51,0,0,1,6.63,1,20.13,20.13,0,0,1,5.73,3.34,2.46,2.46,0,0,1,.81,1,2.79,2.79,0,0,1,.2,1.11,2.14,2.14,0,0,1-.76,1.67,2.44,2.44,0,0,1-1.72.66,2.67,2.67,0,0,1-1.72-.66,14.26,14.26,0,0,0-4.05-2.53,13.7,13.7,0,0,0-5.12-.81,13.59,13.59,0,0,0-7.29,2.07A15.29,15.29,0,0,0,12,59.48,16.63,16.63,0,0,0,12,75a15.37,15.37,0,0,0,5.26,5.62,13.59,13.59,0,0,0,7.29,2.07,14.71,14.71,0,0,0,8.15-2.53v-9h-7a2.84,2.84,0,0,1-1.93-.66,2.32,2.32,0,0,1,0-3.34,2.84,2.84,0,0,1,1.93-.66Z" transform="translate(-5 -8.35)"/><path class="c" d="M56.25,87.23A14.68,14.68,0,0,1,49,85.46a12.87,12.87,0,0,1-5-5,15.79,15.79,0,0,1,0-14.53,12.52,12.52,0,0,1,5-5,14.39,14.39,0,0,1,7.24-1.82A14,14,0,0,1,63.39,61a12.59,12.59,0,0,1,5,5,14.5,14.5,0,0,1,1.82,7.29,14.65,14.65,0,0,1-1.77,7.24,12.93,12.93,0,0,1-5,5,14.38,14.38,0,0,1-7.19,1.77Zm0-4.56a8.79,8.79,0,0,0,4.61-1.21,8.34,8.34,0,0,0,3.19-3.34,11,11,0,0,0,0-9.83,8.22,8.22,0,0,0-3.19-3.39,8.79,8.79,0,0,0-4.61-1.21,9,9,0,0,0-4.66,1.21,8.62,8.62,0,0,0-3.19,3.39,11,11,0,0,0,0,9.83,8.76,8.76,0,0,0,3.19,3.34A9,9,0,0,0,56.25,82.67Z" transform="translate(-5 -8.35)"/><path class="c" d="M91,87.53a18.21,18.21,0,0,1-9-2.23,12,12,0,0,1-5.52-5.82,2.68,2.68,0,0,1-.25-1,1.8,1.8,0,0,1,.55-1.32,2.83,2.83,0,0,1,1.52-.81,2.06,2.06,0,0,1,.51,0,2.63,2.63,0,0,1,1.52.5,2.8,2.8,0,0,1,1.11,1.27A7.5,7.5,0,0,0,85,81.41,12.91,12.91,0,0,0,91,82.78a11.57,11.57,0,0,0,6.43-1.72A5.54,5.54,0,0,0,100,76.25a6.37,6.37,0,0,0-2.23-4.91C96.32,70,94.06,69.11,91,68.8q-6.28-.6-9.87-3.64a9.74,9.74,0,0,1-3.6-7.7,8.81,8.81,0,0,1,1.82-5.57,11.52,11.52,0,0,1,5.07-3.59A19.82,19.82,0,0,1,91.68,47,14.08,14.08,0,0,1,99,48.81a15,15,0,0,1,5.06,5.06,3.4,3.4,0,0,1,.61,1.82,2.15,2.15,0,0,1-1,1.82,2.4,2.4,0,0,1-1.32.36,2.91,2.91,0,0,1-1.42-.36,2.7,2.7,0,0,1-1-1.06A9.3,9.3,0,0,0,96.49,53a9.94,9.94,0,0,0-5.17-1.22,11.41,11.41,0,0,0-6.22,1.52,4.74,4.74,0,0,0-2.38,4.31A5.49,5.49,0,0,0,84.84,62q2.13,1.77,7.6,2.33c4,.4,7.19,1.64,9.41,3.69a10.36,10.36,0,0,1,3.34,8,10.14,10.14,0,0,1-2,6.28A12.17,12.17,0,0,1,98,86.27a19.07,19.07,0,0,1-7,1.27Z" transform="translate(-5 -8.35)"/><path class="c" d="M126.48,59.08a12.94,12.94,0,0,1,6.28,1.52,10.61,10.61,0,0,1,4.35,4.45,14.44,14.44,0,0,1,1.57,7V84.49a2.54,2.54,0,0,1-.76,1.88,2.47,2.47,0,0,1-1.82.71,2.44,2.44,0,0,1-2.58-2.59V72q0-4.1-2.23-6.18a8,8,0,0,0-5.82-2.12,8.71,8.71,0,0,0-3.9.86,7,7,0,0,0-2.73,2.33,5.87,5.87,0,0,0-1,3.29V84.49a2.66,2.66,0,0,1-.71,1.88,2.57,2.57,0,0,1-1.88.71,2.44,2.44,0,0,1-2.58-2.59V50.07a2.57,2.57,0,0,1,.71-1.88,2.65,2.65,0,0,1,1.87-.7,2.43,2.43,0,0,1,2.59,2.58v12.4A10.91,10.91,0,0,1,121.72,60a12.41,12.41,0,0,1,4.76-.91Z" transform="translate(-5 -8.35)"/><path class="c" d="M159.88,59.13a13.44,13.44,0,0,1,7,1.87,13.22,13.22,0,0,1,5,5.07,13.87,13.87,0,0,1,1.87,7.13V84.49a2.54,2.54,0,0,1-.76,1.88,2.47,2.47,0,0,1-1.82.71,2.44,2.44,0,0,1-2.59-2.59V82.62a12.47,12.47,0,0,1-9.77,4.61,12.52,12.52,0,0,1-6.63-1.82,13.12,13.12,0,0,1-4.66-5,15.48,15.48,0,0,1-1.67-7.19,14,14,0,0,1,1.83-7.13,13.12,13.12,0,0,1,5-5.07,14,14,0,0,1,7.14-1.87Zm0,23.54a8.68,8.68,0,0,0,4.55-1.21,8.89,8.89,0,0,0,3.24-3.4,10.68,10.68,0,0,0,0-9.72,8.85,8.85,0,0,0-7.79-4.65A8.7,8.7,0,0,0,155.27,65,9,9,0,0,0,152,68.34a10.68,10.68,0,0,0,0,9.72,9.52,9.52,0,0,0,3.24,3.4A8.94,8.94,0,0,0,159.88,82.67Z" transform="translate(-5 -8.35)"/><path class="c" d="M195.1,59a9,9,0,0,1,4.2.81,2.34,2.34,0,0,1,1.52,2,1.58,1.58,0,0,1,0,.51,2,2,0,0,1-2,1.62,4,4,0,0,1-.76-.1,19.69,19.69,0,0,0-3.29-.36,9.54,9.54,0,0,0-5.88,1.68,5.33,5.33,0,0,0-2.22,4.5V84.49a2.55,2.55,0,0,1-.66,1.88,2.43,2.43,0,0,1-1.87.66,2.71,2.71,0,0,1-1.88-.61,2.61,2.61,0,0,1-.66-1.93V61.86a2.3,2.3,0,0,1,2.54-2.53,2.24,2.24,0,0,1,2.53,2.53v1A10.77,10.77,0,0,1,190.34,60a11.45,11.45,0,0,1,4.76-1Z" transform="translate(-5 -8.35)"/><path class="c" d="M229,72.75a2.19,2.19,0,0,1-.65,1.62,2.4,2.4,0,0,1-1.67.61H207.47a8.94,8.94,0,0,0,3.19,5.72,10,10,0,0,0,6.53,2.17,9.67,9.67,0,0,0,3.14-.55A9.4,9.4,0,0,0,223.06,81a2.63,2.63,0,0,1,1.67-.56,2.17,2.17,0,0,1,1.52.51,2.21,2.21,0,0,1,.91,1.72,1.84,1.84,0,0,1-.81,1.52,14.15,14.15,0,0,1-4.3,2.23,15.21,15.21,0,0,1-4.86.86,15.43,15.43,0,0,1-7.44-1.77,13.41,13.41,0,0,1-5.17-5,14.36,14.36,0,0,1-1.82-7.24A15,15,0,0,1,204.48,66a12.6,12.6,0,0,1,4.86-5,13.91,13.91,0,0,1,7.09-1.82,12.69,12.69,0,0,1,6.73,1.72,11.42,11.42,0,0,1,4.36,4.81A15.9,15.9,0,0,1,229,72.75Zm-12.6-9.27a8.87,8.87,0,0,0-6,2,9.18,9.18,0,0,0-2.88,5.42h16.86a9,9,0,0,0-2.53-5.42A7.44,7.44,0,0,0,216.43,63.48Z" transform="translate(-5 -8.35)"/><path class="c" d="M246.86,87a14.31,14.31,0,0,1-6.73-1.57,12.17,12.17,0,0,1-4.61-4.36,11.88,11.88,0,0,1-1.67-6.22,2.77,2.77,0,0,1,.66-1.88,2.21,2.21,0,0,1,3.34,0,2.77,2.77,0,0,1,.66,1.88,7.31,7.31,0,0,0,1.06,3.84,8.14,8.14,0,0,0,2.89,2.79,8.5,8.5,0,0,0,4.1,1A7.64,7.64,0,0,0,252,80.65a6.7,6.7,0,0,0,2-5.17,8,8,0,0,0-.91-3.79A6.59,6.59,0,0,0,250.56,69a6.36,6.36,0,0,0-3.5-1,2.53,2.53,0,0,1-1.87-.76,2.66,2.66,0,0,1-.71-1.87,2.5,2.5,0,0,1,.71-1.83,2.57,2.57,0,0,1,1.87-.76,5.73,5.73,0,0,0,2.74-.7A6.05,6.05,0,0,0,252,60a4.78,4.78,0,0,0,.86-2.78,4.93,4.93,0,0,0-1.62-3.75,5.83,5.83,0,0,0-4.15-1.52,8.18,8.18,0,0,0-3.54.76,6.82,6.82,0,0,0-2.53,2,4.69,4.69,0,0,0-.91,2.83,3,3,0,0,1-.66,2,2.13,2.13,0,0,1-1.67.75,2.18,2.18,0,0,1-1.67-.7,2.77,2.77,0,0,1-.66-1.88,9.35,9.35,0,0,1,1.52-5.21,10.2,10.2,0,0,1,4.15-3.7A12.54,12.54,0,0,1,247,47.44a11.06,11.06,0,0,1,5.37,1.31,9.59,9.59,0,0,1,3.8,3.5,9.05,9.05,0,0,1,1.41,5A7.11,7.11,0,0,1,255.82,62a12.35,12.35,0,0,1-4.3,3.13,11,11,0,0,1,5.72,4.05,10.86,10.86,0,0,1,1.87,6.38,10.72,10.72,0,0,1-1.67,5.88,11.84,11.84,0,0,1-4.5,4.15A12.85,12.85,0,0,1,246.86,87Z" transform="translate(-5 -8.35)"/><path class="c" d="M276.66,63a11.9,11.9,0,0,1,6.13,1.57A10.73,10.73,0,0,1,287,68.8a13.4,13.4,0,0,1,0,12.4,11.07,11.07,0,0,1-4.25,4.31A12.28,12.28,0,0,1,276.66,87a12.66,12.66,0,0,1-6.23-1.52,11.15,11.15,0,0,1-4.2-4.31A12.51,12.51,0,0,1,264.71,75a12.65,12.65,0,0,1,1.93-6.94L278.13,49a2.7,2.7,0,0,1,2.33-1.41,2.6,2.6,0,0,1,1.92.76,2.53,2.53,0,0,1,.35,3.19L275.8,63Zm-.05,19.49a6.73,6.73,0,0,0,5.12-2.08,8.29,8.29,0,0,0,0-10.73,6.66,6.66,0,0,0-5.12-2.13,6.59,6.59,0,0,0-5.06,2.13,7.44,7.44,0,0,0-2,5.37,7.57,7.57,0,0,0,1.92,5.36,6.72,6.72,0,0,0,5.11,2.08Z" transform="translate(-5 -8.35)"/><path class="c" d="M305.42,87a10,10,0,0,1-9-5.22q-3.13-5.22-3.14-14.58t3.14-14.58a10,10,0,0,1,9-5.21A9.63,9.63,0,0,1,312,49.81a14.74,14.74,0,0,1,4.15,6.84,34.92,34.92,0,0,1,1.42,10.58,34.92,34.92,0,0,1-1.42,10.58A14.74,14.74,0,0,1,312,84.65,9.64,9.64,0,0,1,305.42,87Zm0-5.27c2.26,0,4-1.33,5.11-4a26.34,26.34,0,0,0,1.78-10.53,26.54,26.54,0,0,0-1.78-10.53q-1.77-4.05-5.11-4.05t-5.16,4.05a27,27,0,0,0-1.73,10.53,26.43,26.43,0,0,0,1.78,10.58Q302.08,81.76,305.42,81.76Z" transform="translate(-5 -8.35)"/><path class="d" d="M346,69.86A72.26,72.26,0,0,0,311.49,8.35c16.22,14.41,25.81,37.23,25.84,61.51s-9.67,47.2-26,61.6A72.26,72.26,0,0,0,346,69.86Z" transform="translate(-5 -8.35)"/></svg>