<svg xmlns="http://www.w3.org/2000/svg" viewBox="0 0 292.08 105.45"><defs><style>.a{fill:#f2a739;}.a,.b,.c{fill-rule:evenodd;}.b{fill:#df364b;}.c{fill:#3eadab;}.d{fill:#fff;}</style></defs><title>gs360-lgo-wht-color</title><path class="a" d="M256.35,18.87A51.38,51.38,0,0,0,212.63,43.4C222.87,31.87,239.09,25.06,256.35,25s33.56,6.87,43.79,18.45A51.36,51.36,0,0,0,256.35,18.87Z" transform="translate(-26.15 -17.55)"/><path class="b" d="M212.55,97a51.24,51.24,0,0,0,87.52.08c-10.24,11.54-26.46,18.36-43.72,18.38S222.79,108.55,212.55,97Z" transform="translate(-26.15 -17.55)"/><path class="c" d="M318.23,70.23a61.91,61.91,0,0,0-29.56-52.68c13.89,12.35,22.11,31.89,22.13,52.68s-8.28,40.44-22.23,52.77A61.87,61.87,0,0,0,318.23,70.23Z" transform="translate(-26.15 -17.55)"/><path class="d" d="M52,67.38a2,2,0,0,1,1.56.65,2.09,2.09,0,0,1,.65,1.6V80a1.93,1.93,0,0,1-.7,1.6,16.85,16.85,0,0,1-19.12,1.47,16.62,16.62,0,0,1-6-6.28A17.92,17.92,0,0,1,26.15,68a17.54,17.54,0,0,1,2.21-8.71,16.65,16.65,0,0,1,6-6.29,16.09,16.09,0,0,1,8.5-2.34,16.59,16.59,0,0,1,5.68.87,16.8,16.8,0,0,1,4.9,2.86,1.91,1.91,0,0,1,.69.82,2.28,2.28,0,0,1,.18,1,1.84,1.84,0,0,1-.65,1.43,2.13,2.13,0,0,1-1.48.56,2.31,2.31,0,0,1-1.47-.56,12,12,0,0,0-3.47-2.17,12.63,12.63,0,0,0-10.62,1.08,13,13,0,0,0-4.51,4.86,14.25,14.25,0,0,0,0,13.31,13,13,0,0,0,4.51,4.81,11.55,11.55,0,0,0,6.24,1.78,12.57,12.57,0,0,0,7-2.17V71.37h-6a2.4,2.4,0,0,1-1.65-.57,2,2,0,0,1,0-2.86,2.39,2.39,0,0,1,1.65-.56Z" transform="translate(-26.15 -17.55)"/><path class="d" d="M70.05,85.11a12.47,12.47,0,0,1-6.2-1.52A11,11,0,0,1,59.6,79.3a13.49,13.49,0,0,1,0-12.44,10.66,10.66,0,0,1,4.25-4.25,12.28,12.28,0,0,1,6.2-1.56,12,12,0,0,1,6.11,1.56,10.66,10.66,0,0,1,4.25,4.25A12.35,12.35,0,0,1,82,73.1a12.57,12.57,0,0,1-1.51,6.2,11.09,11.09,0,0,1-4.25,4.29,12.26,12.26,0,0,1-6.16,1.52Zm0-3.9a7.53,7.53,0,0,0,3.94-1,7.11,7.11,0,0,0,2.74-2.86,9.45,9.45,0,0,0,0-8.42A7,7,0,0,0,74,66a7.44,7.44,0,0,0-3.94-1,7.66,7.66,0,0,0-4,1,7.27,7.27,0,0,0-2.73,2.9,9.36,9.36,0,0,0,0,8.42,7.43,7.43,0,0,0,2.73,2.86A7.76,7.76,0,0,0,70.05,81.21Z" transform="translate(-26.15 -17.55)"/><path class="d" d="M99.79,85.37a15.57,15.57,0,0,1-7.68-1.91,10.36,10.36,0,0,1-4.73-5,2.46,2.46,0,0,1-.21-.87,1.58,1.58,0,0,1,.47-1.13,2.41,2.41,0,0,1,1.3-.69,1.59,1.59,0,0,1,.44,0,2.2,2.2,0,0,1,1.3.43,2.3,2.3,0,0,1,.95,1.09,6.42,6.42,0,0,0,3.08,2.86,11,11,0,0,0,5.08,1.17,9.78,9.78,0,0,0,5.5-1.48,4.7,4.7,0,0,0,2.26-4.11,5.5,5.5,0,0,0-1.91-4.21,9.73,9.73,0,0,0-5.81-2.17,15.11,15.11,0,0,1-8.46-3.12,8.34,8.34,0,0,1-3.08-6.59,7.46,7.46,0,0,1,1.57-4.77,9.72,9.72,0,0,1,4.33-3.08,17,17,0,0,1,6.2-1.09,12.16,12.16,0,0,1,6.29,1.52A13,13,0,0,1,111,56.54a3,3,0,0,1,.52,1.56,1.82,1.82,0,0,1-.87,1.56,2.07,2.07,0,0,1-1.13.3,2.52,2.52,0,0,1-1.21-.3,2.3,2.3,0,0,1-.87-.91,8,8,0,0,0-2.95-3,8.5,8.5,0,0,0-4.42-1,9.72,9.72,0,0,0-5.33,1.3,4.07,4.07,0,0,0-2,3.69,4.7,4.7,0,0,0,1.82,3.77c1.21,1,3.38,1.68,6.5,2a13.58,13.58,0,0,1,8.07,3.17,8.85,8.85,0,0,1,2.86,6.9A8.67,8.67,0,0,1,110.28,81a10.35,10.35,0,0,1-4.51,3.34,16.37,16.37,0,0,1-6,1.09Z" transform="translate(-26.15 -17.55)"/><path class="d" d="M130.21,61a11.11,11.11,0,0,1,5.37,1.3,9.11,9.11,0,0,1,3.73,3.82,12.32,12.32,0,0,1,1.35,6V82.77a2.17,2.17,0,0,1-.65,1.6,2.12,2.12,0,0,1-1.57.61,2.24,2.24,0,0,1-1.6-.61,2.26,2.26,0,0,1-.61-1.6V72.1A6.46,6.46,0,0,0,129.34,65a7.54,7.54,0,0,0-3.34.74,6.08,6.08,0,0,0-2.34,2,5,5,0,0,0-.83,2.82V82.77a2.25,2.25,0,0,1-.6,1.6,2.16,2.16,0,0,1-1.61.61,2.09,2.09,0,0,1-2.21-2.21V53.28a2.14,2.14,0,0,1,.61-1.6,2.24,2.24,0,0,1,1.6-.61,2.08,2.08,0,0,1,2.21,2.21V63.91a9.38,9.38,0,0,1,3.3-2.13,10.66,10.66,0,0,1,4.08-.78Z" transform="translate(-26.15 -17.55)"/><path class="d" d="M158.81,61.05a11.57,11.57,0,0,1,6,1.6A11.25,11.25,0,0,1,169.13,67a11.83,11.83,0,0,1,1.6,6.11v9.67a2.13,2.13,0,0,1-.65,1.6,2.08,2.08,0,0,1-1.56.61,2.09,2.09,0,0,1-2.21-2.21v-1.6a10.69,10.69,0,0,1-8.37,3.94,10.71,10.71,0,0,1-5.68-1.56,11.16,11.16,0,0,1-4-4.29,13.28,13.28,0,0,1-1.43-6.16A12.1,12.1,0,0,1,148.4,67a11.25,11.25,0,0,1,4.29-4.34,12,12,0,0,1,6.12-1.6Zm0,20.16a7.49,7.49,0,0,0,3.9-1,7.62,7.62,0,0,0,2.78-2.91,9.24,9.24,0,0,0,0-8.32,7.59,7.59,0,0,0-6.68-4A7.47,7.47,0,0,0,154.86,66a7.68,7.68,0,0,0-2.77,2.91,9.15,9.15,0,0,0,0,8.32,8.06,8.06,0,0,0,2.77,2.91A7.72,7.72,0,0,0,158.81,81.21Z" transform="translate(-26.15 -17.55)"/><path class="d" d="M189,61a7.78,7.78,0,0,1,3.6.69,2,2,0,0,1,1.3,1.74,1.51,1.51,0,0,1,0,.43,1.68,1.68,0,0,1-1.74,1.39,3.58,3.58,0,0,1-.65-.09,17.16,17.16,0,0,0-2.81-.3,8.11,8.11,0,0,0-5,1.43,4.55,4.55,0,0,0-1.91,3.86V82.77a2.14,2.14,0,0,1-.57,1.6,2.05,2.05,0,0,1-1.6.57,1.91,1.91,0,0,1-2.17-2.17V63.39a2,2,0,0,1,2.17-2.17,1.92,1.92,0,0,1,2.17,2.17v.82a8.93,8.93,0,0,1,3.21-2.38A9.69,9.69,0,0,1,189,61Z" transform="translate(-26.15 -17.55)"/><path class="d" d="M218,72.71a1.88,1.88,0,0,1-.56,1.39,2,2,0,0,1-1.43.52H199.57a7.72,7.72,0,0,0,2.73,4.9,8.63,8.63,0,0,0,5.6,1.86,8.52,8.52,0,0,0,2.69-.47,8.24,8.24,0,0,0,2.34-1.17,2.23,2.23,0,0,1,1.43-.48,1.86,1.86,0,0,1,1.3.43,1.91,1.91,0,0,1,.78,1.48,1.58,1.58,0,0,1-.69,1.3,12.08,12.08,0,0,1-3.69,1.9,12.7,12.7,0,0,1-4.16.74,13.16,13.16,0,0,1-6.38-1.52,11.46,11.46,0,0,1-4.42-4.29,12.28,12.28,0,0,1-1.56-6.2A12.88,12.88,0,0,1,197,66.9a10.83,10.83,0,0,1,4.17-4.29,11.85,11.85,0,0,1,6.07-1.56A10.89,10.89,0,0,1,213,62.52a9.68,9.68,0,0,1,3.73,4.12,13.55,13.55,0,0,1,1.3,6.07Zm-10.79-7.94a7.57,7.57,0,0,0-5.16,1.74,7.87,7.87,0,0,0-2.48,4.64h14.44a7.71,7.71,0,0,0-2.16-4.64A6.37,6.37,0,0,0,207.25,64.77Z" transform="translate(-26.15 -17.55)"/><path class="d" d="M233.31,84.94a12.19,12.19,0,0,1-5.77-1.35,10.38,10.38,0,0,1-3.94-3.72,10.12,10.12,0,0,1-1.43-5.34,2.38,2.38,0,0,1,.56-1.6,1.9,1.9,0,0,1,2.86,0,2.34,2.34,0,0,1,.57,1.6,6.26,6.26,0,0,0,.91,3.3,7,7,0,0,0,2.47,2.38,7.25,7.25,0,0,0,3.51.87,6.57,6.57,0,0,0,4.64-1.61,5.7,5.7,0,0,0,1.74-4.42,6.84,6.84,0,0,0-.78-3.25,5.78,5.78,0,0,0-2.17-2.34,5.41,5.41,0,0,0-3-.87,2.19,2.19,0,0,1-1.61-.65,2.28,2.28,0,0,1-.61-1.6,2.16,2.16,0,0,1,.61-1.57,2.19,2.19,0,0,1,1.61-.65,4.94,4.94,0,0,0,2.34-.6,5.1,5.1,0,0,0,1.86-1.74,4.16,4.16,0,0,0,.74-2.38A4.22,4.22,0,0,0,237,56.19a5,5,0,0,0-3.55-1.3,7,7,0,0,0-3,.65,5.85,5.85,0,0,0-2.17,1.73,4.07,4.07,0,0,0-.78,2.43,2.61,2.61,0,0,1-.56,1.69,1.81,1.81,0,0,1-1.43.65,1.86,1.86,0,0,1-1.43-.6,2.37,2.37,0,0,1-.57-1.61,8.06,8.06,0,0,1,1.3-4.47,8.87,8.87,0,0,1,3.56-3.16,10.75,10.75,0,0,1,5-1.17,9.41,9.41,0,0,1,4.6,1.13,8.17,8.17,0,0,1,3.25,3,7.74,7.74,0,0,1,1.21,4.25A6.08,6.08,0,0,1,241,63.47a10.52,10.52,0,0,1-3.69,2.69,8.92,8.92,0,0,1,6.51,8.94,9.24,9.24,0,0,1-1.43,5,10.31,10.31,0,0,1-3.86,3.55,11,11,0,0,1-5.21,1.26Z" transform="translate(-26.15 -17.55)"/><path class="d" d="M258.84,64.34a10.15,10.15,0,0,1,5.24,1.35,9.2,9.2,0,0,1,3.65,3.64,11.49,11.49,0,0,1,0,10.62,9.58,9.58,0,0,1-3.65,3.69,10.52,10.52,0,0,1-5.24,1.3,10.88,10.88,0,0,1-5.34-1.3A9.67,9.67,0,0,1,249.9,80a10.77,10.77,0,0,1-1.3-5.29,10.88,10.88,0,0,1,1.65-5.94l9.84-16.39a2.32,2.32,0,0,1,2-1.22,2.24,2.24,0,0,1,1.65.66,2.13,2.13,0,0,1,.65,1.56A2.09,2.09,0,0,1,264,54.5l-5.94,9.84Zm0,16.7a5.8,5.8,0,0,0,4.38-1.78,7.11,7.11,0,0,0,0-9.2,6.13,6.13,0,0,0-8.72,0,6.4,6.4,0,0,0-1.69,4.6,6.5,6.5,0,0,0,1.65,4.6A5.77,5.77,0,0,0,258.8,81Z" transform="translate(-26.15 -17.55)"/><path class="d" d="M283.47,84.94a8.56,8.56,0,0,1-7.68-4.47Q273.11,76,273.11,68t2.68-12.49A8.57,8.57,0,0,1,283.47,51a8.22,8.22,0,0,1,5.59,2,12.56,12.56,0,0,1,3.56,5.85A30,30,0,0,1,293.83,68a30.09,30.09,0,0,1-1.21,9.07,12.56,12.56,0,0,1-3.56,5.85,8.22,8.22,0,0,1-5.59,2Zm0-4.51q2.91,0,4.38-3.43a22.54,22.54,0,0,0,1.52-9,22.78,22.78,0,0,0-1.52-9q-1.52-3.47-4.38-3.47T279.05,59a23,23,0,0,0-1.48,9,22.74,22.74,0,0,0,1.52,9.07q1.52,3.38,4.38,3.38Z" transform="translate(-26.15 -17.55)"/></svg>